solid OpenSCAD_Model
  facet normal -0.0314118 -0.999507 0
    outer loop
      vertex -0.941857 -14.9704 0
      vertex 0 -15 60
      vertex -0.941857 -14.9704 60
    endloop
  endfacet
  facet normal -0.0314118 -0.999507 -0
    outer loop
      vertex 0 -15 60
      vertex -0.941857 -14.9704 0
      vertex 0 -15 0
    endloop
  endfacet
  facet normal 0.750092 -0.661334 0
    outer loop
      vertex 10.9345 -10.2682 60
      vertex 11.5577 -9.56136 0
      vertex 11.5577 -9.56136 60
    endloop
  endfacet
  facet normal 0.750092 -0.661334 0
    outer loop
      vertex 11.5577 -9.56136 0
      vertex 10.9345 -10.2682 60
      vertex 10.9345 -10.2682 0
    endloop
  endfacet
  facet normal 0.99556 0.0941287 0
    outer loop
      vertex 14.9704 0.941857 60
      vertex 14.8817 1.88 0
      vertex 14.8817 1.88 60
    endloop
  endfacet
  facet normal 0.99556 0.0941287 0
    outer loop
      vertex 14.8817 1.88 0
      vertex 14.9704 0.941857 60
      vertex 14.9704 0.941857 0
    endloop
  endfacet
  facet normal 0.999507 0.0314118 0
    outer loop
      vertex 15 0 60
      vertex 14.9704 0.941857 0
      vertex 14.9704 0.941857 60
    endloop
  endfacet
  facet normal 0.999507 0.0314118 0
    outer loop
      vertex 14.9704 0.941857 0
      vertex 15 0 60
      vertex 15 0 0
    endloop
  endfacet
  facet normal 0.98769 0.156422 0
    outer loop
      vertex 14.8817 1.88 60
      vertex 14.7343 2.81072 0
      vertex 14.7343 2.81072 60
    endloop
  endfacet
  facet normal 0.98769 0.156422 0
    outer loop
      vertex 14.7343 2.81072 0
      vertex 14.8817 1.88 60
      vertex 14.8817 1.88 0
    endloop
  endfacet
  facet normal -0.827113 -0.562035 0
    outer loop
      vertex -12.1353 -8.81678 0
      vertex -12.6649 -8.0374 60
      vertex -12.6649 -8.0374 0
    endloop
  endfacet
  facet normal -0.827113 -0.562035 0
    outer loop
      vertex -12.6649 -8.0374 60
      vertex -12.1353 -8.81678 0
      vertex -12.1353 -8.81678 60
    endloop
  endfacet
  facet normal -0.612937 -0.790132 0
    outer loop
      vertex -9.56136 -11.5577 0
      vertex -8.81678 -12.1353 60
      vertex -9.56136 -11.5577 60
    endloop
  endfacet
  facet normal -0.612937 -0.790132 -0
    outer loop
      vertex -8.81678 -12.1353 60
      vertex -9.56136 -11.5577 0
      vertex -8.81678 -12.1353 0
    endloop
  endfacet
  facet normal 0.860731 0.509059 0
    outer loop
      vertex 13.1446 7.22631 60
      vertex 12.6649 8.0374 0
      vertex 12.6649 8.0374 60
    endloop
  endfacet
  facet normal 0.860731 0.509059 0
    outer loop
      vertex 12.6649 8.0374 0
      vertex 13.1446 7.22631 60
      vertex 13.1446 7.22631 0
    endloop
  endfacet
  facet normal -0.98769 0.156422 0
    outer loop
      vertex -14.8817 1.88 0
      vertex -14.7343 2.81072 60
      vertex -14.7343 2.81072 0
    endloop
  endfacet
  facet normal -0.98769 0.156422 0
    outer loop
      vertex -14.7343 2.81072 60
      vertex -14.8817 1.88 0
      vertex -14.8817 1.88 60
    endloop
  endfacet
  facet normal -0.562035 -0.827113 0
    outer loop
      vertex -8.81678 -12.1353 0
      vertex -8.0374 -12.6649 60
      vertex -8.81678 -12.1353 60
    endloop
  endfacet
  facet normal -0.562035 -0.827113 -0
    outer loop
      vertex -8.0374 -12.6649 60
      vertex -8.81678 -12.1353 0
      vertex -8.0374 -12.6649 0
    endloop
  endfacet
  facet normal -0.562035 0.827113 0
    outer loop
      vertex -8.0374 12.6649 0
      vertex -8.81678 12.1353 60
      vertex -8.0374 12.6649 60
    endloop
  endfacet
  facet normal -0.562035 0.827113 0
    outer loop
      vertex -8.81678 12.1353 60
      vertex -8.0374 12.6649 0
      vertex -8.81678 12.1353 0
    endloop
  endfacet
  facet normal 0.975908 0.218182 0
    outer loop
      vertex 14.7343 2.81072 60
      vertex 14.5287 3.73035 0
      vertex 14.5287 3.73035 60
    endloop
  endfacet
  facet normal 0.975908 0.218182 0
    outer loop
      vertex 14.5287 3.73035 0
      vertex 14.7343 2.81072 60
      vertex 14.7343 2.81072 0
    endloop
  endfacet
  facet normal 0.661334 0.750092 -0
    outer loop
      vertex 10.2682 10.9345 0
      vertex 9.56136 11.5577 60
      vertex 10.2682 10.9345 60
    endloop
  endfacet
  facet normal 0.661334 0.750092 0
    outer loop
      vertex 9.56136 11.5577 60
      vertex 10.2682 10.9345 0
      vertex 9.56136 11.5577 0
    endloop
  endfacet
  facet normal -0.509059 0.860731 0
    outer loop
      vertex -7.22631 13.1446 0
      vertex -8.0374 12.6649 60
      vertex -7.22631 13.1446 60
    endloop
  endfacet
  facet normal -0.509059 0.860731 0
    outer loop
      vertex -8.0374 12.6649 60
      vertex -7.22631 13.1446 0
      vertex -8.0374 12.6649 0
    endloop
  endfacet
  facet normal -0.397111 0.91777 0
    outer loop
      vertex -5.52187 13.9466 0
      vertex -6.38669 13.5724 60
      vertex -5.52187 13.9466 60
    endloop
  endfacet
  facet normal -0.397111 0.91777 0
    outer loop
      vertex -6.38669 13.5724 60
      vertex -5.52187 13.9466 0
      vertex -6.38669 13.5724 0
    endloop
  endfacet
  facet normal 0.827113 -0.562035 0
    outer loop
      vertex 12.1353 -8.81678 60
      vertex 12.6649 -8.0374 0
      vertex 12.6649 -8.0374 60
    endloop
  endfacet
  facet normal 0.827113 -0.562035 0
    outer loop
      vertex 12.6649 -8.0374 0
      vertex 12.1353 -8.81678 60
      vertex 12.1353 -8.81678 0
    endloop
  endfacet
  facet normal -0.338735 0.940882 0
    outer loop
      vertex -4.63525 14.2658 0
      vertex -5.52187 13.9466 60
      vertex -4.63525 14.2658 60
    endloop
  endfacet
  facet normal -0.338735 0.940882 0
    outer loop
      vertex -5.52187 13.9466 60
      vertex -4.63525 14.2658 0
      vertex -5.52187 13.9466 0
    endloop
  endfacet
  facet normal 0.790132 -0.612937 0
    outer loop
      vertex 11.5577 -9.56136 60
      vertex 12.1353 -8.81678 0
      vertex 12.1353 -8.81678 60
    endloop
  endfacet
  facet normal 0.790132 -0.612937 0
    outer loop
      vertex 12.1353 -8.81678 0
      vertex 11.5577 -9.56136 60
      vertex 11.5577 -9.56136 0
    endloop
  endfacet
  facet normal 0.218182 -0.975908 0
    outer loop
      vertex 2.81072 -14.7343 0
      vertex 3.73035 -14.5287 60
      vertex 2.81072 -14.7343 60
    endloop
  endfacet
  facet normal 0.218182 -0.975908 0
    outer loop
      vertex 3.73035 -14.5287 60
      vertex 2.81072 -14.7343 0
      vertex 3.73035 -14.5287 0
    endloop
  endfacet
  facet normal -0.156422 0.98769 0
    outer loop
      vertex -1.88 14.8817 0
      vertex -2.81072 14.7343 60
      vertex -1.88 14.8817 60
    endloop
  endfacet
  facet normal -0.156422 0.98769 0
    outer loop
      vertex -2.81072 14.7343 60
      vertex -1.88 14.8817 0
      vertex -2.81072 14.7343 0
    endloop
  endfacet
  facet normal 0.860731 -0.509059 0
    outer loop
      vertex 12.6649 -8.0374 60
      vertex 13.1446 -7.22631 0
      vertex 13.1446 -7.22631 60
    endloop
  endfacet
  facet normal 0.860731 -0.509059 0
    outer loop
      vertex 13.1446 -7.22631 0
      vertex 12.6649 -8.0374 60
      vertex 12.6649 -8.0374 0
    endloop
  endfacet
  facet normal 0.612937 0.790132 -0
    outer loop
      vertex 9.56136 11.5577 0
      vertex 8.81678 12.1353 60
      vertex 9.56136 11.5577 60
    endloop
  endfacet
  facet normal 0.612937 0.790132 0
    outer loop
      vertex 8.81678 12.1353 60
      vertex 9.56136 11.5577 0
      vertex 8.81678 12.1353 0
    endloop
  endfacet
  facet normal 0.975908 -0.218182 0
    outer loop
      vertex 14.5287 -3.73035 60
      vertex 14.7343 -2.81072 0
      vertex 14.7343 -2.81072 60
    endloop
  endfacet
  facet normal 0.975908 -0.218182 0
    outer loop
      vertex 14.7343 -2.81072 0
      vertex 14.5287 -3.73035 60
      vertex 14.5287 -3.73035 0
    endloop
  endfacet
  facet normal -0.612937 0.790132 0
    outer loop
      vertex -8.81678 12.1353 0
      vertex -9.56136 11.5577 60
      vertex -8.81678 12.1353 60
    endloop
  endfacet
  facet normal -0.612937 0.790132 0
    outer loop
      vertex -9.56136 11.5577 60
      vertex -8.81678 12.1353 0
      vertex -9.56136 11.5577 0
    endloop
  endfacet
  facet normal -0.940882 -0.338735 0
    outer loop
      vertex -13.9466 -5.52187 0
      vertex -14.2658 -4.63525 60
      vertex -14.2658 -4.63525 0
    endloop
  endfacet
  facet normal -0.940882 -0.338735 0
    outer loop
      vertex -14.2658 -4.63525 60
      vertex -13.9466 -5.52187 0
      vertex -13.9466 -5.52187 60
    endloop
  endfacet
  facet normal 0.999507 -0.0314118 0
    outer loop
      vertex 14.9704 -0.941857 60
      vertex 15 0 0
      vertex 15 0 60
    endloop
  endfacet
  facet normal 0.999507 -0.0314118 0
    outer loop
      vertex 15 0 0
      vertex 14.9704 -0.941857 60
      vertex 14.9704 -0.941857 0
    endloop
  endfacet
  facet normal 0.960293 0.278993 0
    outer loop
      vertex 14.5287 3.73035 60
      vertex 14.2658 4.63525 0
      vertex 14.2658 4.63525 60
    endloop
  endfacet
  facet normal 0.960293 0.278993 0
    outer loop
      vertex 14.2658 4.63525 0
      vertex 14.5287 3.73035 60
      vertex 14.5287 3.73035 0
    endloop
  endfacet
  facet normal -0.89101 -0.453984 0
    outer loop
      vertex -13.1446 -7.22631 0
      vertex -13.5724 -6.38669 60
      vertex -13.5724 -6.38669 0
    endloop
  endfacet
  facet normal -0.89101 -0.453984 0
    outer loop
      vertex -13.5724 -6.38669 60
      vertex -13.1446 -7.22631 0
      vertex -13.1446 -7.22631 60
    endloop
  endfacet
  facet normal 0.509059 -0.860731 0
    outer loop
      vertex 7.22631 -13.1446 0
      vertex 8.0374 -12.6649 60
      vertex 7.22631 -13.1446 60
    endloop
  endfacet
  facet normal 0.509059 -0.860731 0
    outer loop
      vertex 8.0374 -12.6649 60
      vertex 7.22631 -13.1446 0
      vertex 8.0374 -12.6649 0
    endloop
  endfacet
  facet normal -0.661334 0.750092 0
    outer loop
      vertex -9.56136 11.5577 0
      vertex -10.2682 10.9345 60
      vertex -9.56136 11.5577 60
    endloop
  endfacet
  facet normal -0.661334 0.750092 0
    outer loop
      vertex -10.2682 10.9345 60
      vertex -9.56136 11.5577 0
      vertex -10.2682 10.9345 0
    endloop
  endfacet
  facet normal 0.750092 0.661334 0
    outer loop
      vertex 11.5577 9.56136 60
      vertex 10.9345 10.2682 0
      vertex 10.9345 10.2682 60
    endloop
  endfacet
  facet normal 0.750092 0.661334 0
    outer loop
      vertex 10.9345 10.2682 0
      vertex 11.5577 9.56136 60
      vertex 11.5577 9.56136 0
    endloop
  endfacet
  facet normal 0.278993 -0.960293 0
    outer loop
      vertex 3.73035 -14.5287 0
      vertex 4.63525 -14.2658 60
      vertex 3.73035 -14.5287 60
    endloop
  endfacet
  facet normal 0.278993 -0.960293 0
    outer loop
      vertex 4.63525 -14.2658 60
      vertex 3.73035 -14.5287 0
      vertex 4.63525 -14.2658 0
    endloop
  endfacet
  facet normal 0.960293 -0.278993 0
    outer loop
      vertex 14.2658 -4.63525 60
      vertex 14.5287 -3.73035 0
      vertex 14.5287 -3.73035 60
    endloop
  endfacet
  facet normal 0.960293 -0.278993 0
    outer loop
      vertex 14.5287 -3.73035 0
      vertex 14.2658 -4.63525 60
      vertex 14.2658 -4.63525 0
    endloop
  endfacet
  facet normal 0.98769 -0.156422 0
    outer loop
      vertex 14.7343 -2.81072 60
      vertex 14.8817 -1.88 0
      vertex 14.8817 -1.88 60
    endloop
  endfacet
  facet normal 0.98769 -0.156422 0
    outer loop
      vertex 14.8817 -1.88 0
      vertex 14.7343 -2.81072 60
      vertex 14.7343 -2.81072 0
    endloop
  endfacet
  facet normal -0.89101 0.453984 0
    outer loop
      vertex -13.5724 6.38669 0
      vertex -13.1446 7.22631 60
      vertex -13.1446 7.22631 0
    endloop
  endfacet
  facet normal -0.89101 0.453984 0
    outer loop
      vertex -13.1446 7.22631 60
      vertex -13.5724 6.38669 0
      vertex -13.5724 6.38669 60
    endloop
  endfacet
  facet normal -0.790132 0.612937 0
    outer loop
      vertex -12.1353 8.81678 0
      vertex -11.5577 9.56136 60
      vertex -11.5577 9.56136 0
    endloop
  endfacet
  facet normal -0.790132 0.612937 0
    outer loop
      vertex -11.5577 9.56136 60
      vertex -12.1353 8.81678 0
      vertex -12.1353 8.81678 60
    endloop
  endfacet
  facet normal 0.827113 0.562035 0
    outer loop
      vertex 12.6649 8.0374 60
      vertex 12.1353 8.81678 0
      vertex 12.1353 8.81678 60
    endloop
  endfacet
  facet normal 0.827113 0.562035 0
    outer loop
      vertex 12.1353 8.81678 0
      vertex 12.6649 8.0374 60
      vertex 12.6649 8.0374 0
    endloop
  endfacet
  facet normal 0.562035 0.827113 -0
    outer loop
      vertex 8.81678 12.1353 0
      vertex 8.0374 12.6649 60
      vertex 8.81678 12.1353 60
    endloop
  endfacet
  facet normal 0.562035 0.827113 0
    outer loop
      vertex 8.0374 12.6649 60
      vertex 8.81678 12.1353 0
      vertex 8.0374 12.6649 0
    endloop
  endfacet
  facet normal -0.0314118 0.999507 0
    outer loop
      vertex 0 15 0
      vertex -0.941857 14.9704 60
      vertex 0 15 60
    endloop
  endfacet
  facet normal -0.0314118 0.999507 0
    outer loop
      vertex -0.941857 14.9704 60
      vertex 0 15 0
      vertex -0.941857 14.9704 0
    endloop
  endfacet
  facet normal 0.661334 -0.750092 0
    outer loop
      vertex 9.56136 -11.5577 0
      vertex 10.2682 -10.9345 60
      vertex 9.56136 -11.5577 60
    endloop
  endfacet
  facet normal 0.661334 -0.750092 0
    outer loop
      vertex 10.2682 -10.9345 60
      vertex 9.56136 -11.5577 0
      vertex 10.2682 -10.9345 0
    endloop
  endfacet
  facet normal 0.509059 0.860731 -0
    outer loop
      vertex 8.0374 12.6649 0
      vertex 7.22631 13.1446 60
      vertex 8.0374 12.6649 60
    endloop
  endfacet
  facet normal 0.509059 0.860731 0
    outer loop
      vertex 7.22631 13.1446 60
      vertex 8.0374 12.6649 0
      vertex 7.22631 13.1446 0
    endloop
  endfacet
  facet normal 0.0314118 -0.999507 0
    outer loop
      vertex 0 -15 0
      vertex 0.941857 -14.9704 60
      vertex 0 -15 60
    endloop
  endfacet
  facet normal 0.0314118 -0.999507 0
    outer loop
      vertex 0.941857 -14.9704 60
      vertex 0 -15 0
      vertex 0.941857 -14.9704 0
    endloop
  endfacet
  facet normal 0.453984 0.89101 -0
    outer loop
      vertex 7.22631 13.1446 0
      vertex 6.38669 13.5724 60
      vertex 7.22631 13.1446 60
    endloop
  endfacet
  facet normal 0.453984 0.89101 0
    outer loop
      vertex 6.38669 13.5724 60
      vertex 7.22631 13.1446 0
      vertex 6.38669 13.5724 0
    endloop
  endfacet
  facet normal -0.860731 0.509059 0
    outer loop
      vertex -13.1446 7.22631 0
      vertex -12.6649 8.0374 60
      vertex -12.6649 8.0374 0
    endloop
  endfacet
  facet normal -0.860731 0.509059 0
    outer loop
      vertex -12.6649 8.0374 60
      vertex -13.1446 7.22631 0
      vertex -13.1446 7.22631 60
    endloop
  endfacet
  facet normal 0.91777 -0.397111 0
    outer loop
      vertex 13.5724 -6.38669 60
      vertex 13.9466 -5.52187 0
      vertex 13.9466 -5.52187 60
    endloop
  endfacet
  facet normal 0.91777 -0.397111 0
    outer loop
      vertex 13.9466 -5.52187 0
      vertex 13.5724 -6.38669 60
      vertex 13.5724 -6.38669 0
    endloop
  endfacet
  facet normal 0.453984 -0.89101 0
    outer loop
      vertex 6.38669 -13.5724 0
      vertex 7.22631 -13.1446 60
      vertex 6.38669 -13.5724 60
    endloop
  endfacet
  facet normal 0.453984 -0.89101 0
    outer loop
      vertex 7.22631 -13.1446 60
      vertex 6.38669 -13.5724 0
      vertex 7.22631 -13.1446 0
    endloop
  endfacet
  facet normal -0.661334 -0.750092 0
    outer loop
      vertex -10.2682 -10.9345 0
      vertex -9.56136 -11.5577 60
      vertex -10.2682 -10.9345 60
    endloop
  endfacet
  facet normal -0.661334 -0.750092 -0
    outer loop
      vertex -9.56136 -11.5577 60
      vertex -10.2682 -10.9345 0
      vertex -9.56136 -11.5577 0
    endloop
  endfacet
  facet normal -0.91777 -0.397111 0
    outer loop
      vertex -13.5724 -6.38669 0
      vertex -13.9466 -5.52187 60
      vertex -13.9466 -5.52187 0
    endloop
  endfacet
  facet normal -0.91777 -0.397111 0
    outer loop
      vertex -13.9466 -5.52187 60
      vertex -13.5724 -6.38669 0
      vertex -13.5724 -6.38669 60
    endloop
  endfacet
  facet normal 0.562035 -0.827113 0
    outer loop
      vertex 8.0374 -12.6649 0
      vertex 8.81678 -12.1353 60
      vertex 8.0374 -12.6649 60
    endloop
  endfacet
  facet normal 0.562035 -0.827113 0
    outer loop
      vertex 8.81678 -12.1353 60
      vertex 8.0374 -12.6649 0
      vertex 8.81678 -12.1353 0
    endloop
  endfacet
  facet normal -0.99556 -0.0941287 0
    outer loop
      vertex -14.8817 -1.88 0
      vertex -14.9704 -0.941857 60
      vertex -14.9704 -0.941857 0
    endloop
  endfacet
  facet normal -0.99556 -0.0941287 0
    outer loop
      vertex -14.9704 -0.941857 60
      vertex -14.8817 -1.88 0
      vertex -14.8817 -1.88 60
    endloop
  endfacet
  facet normal 0.940882 0.338735 0
    outer loop
      vertex 14.2658 4.63525 60
      vertex 13.9466 5.52187 0
      vertex 13.9466 5.52187 60
    endloop
  endfacet
  facet normal 0.940882 0.338735 0
    outer loop
      vertex 13.9466 5.52187 0
      vertex 14.2658 4.63525 60
      vertex 14.2658 4.63525 0
    endloop
  endfacet
  facet normal 0.89101 0.453984 0
    outer loop
      vertex 13.5724 6.38669 60
      vertex 13.1446 7.22631 0
      vertex 13.1446 7.22631 60
    endloop
  endfacet
  facet normal 0.89101 0.453984 0
    outer loop
      vertex 13.1446 7.22631 0
      vertex 13.5724 6.38669 60
      vertex 13.5724 6.38669 0
    endloop
  endfacet
  facet normal -0.91777 0.397111 0
    outer loop
      vertex -13.9466 5.52187 0
      vertex -13.5724 6.38669 60
      vertex -13.5724 6.38669 0
    endloop
  endfacet
  facet normal -0.91777 0.397111 0
    outer loop
      vertex -13.5724 6.38669 60
      vertex -13.9466 5.52187 0
      vertex -13.9466 5.52187 60
    endloop
  endfacet
  facet normal -0.750092 -0.661334 0
    outer loop
      vertex -10.9345 -10.2682 0
      vertex -11.5577 -9.56136 60
      vertex -11.5577 -9.56136 0
    endloop
  endfacet
  facet normal -0.750092 -0.661334 0
    outer loop
      vertex -11.5577 -9.56136 60
      vertex -10.9345 -10.2682 0
      vertex -10.9345 -10.2682 60
    endloop
  endfacet
  facet normal 0.0941287 -0.99556 0
    outer loop
      vertex 0.941857 -14.9704 0
      vertex 1.88 -14.8817 60
      vertex 0.941857 -14.9704 60
    endloop
  endfacet
  facet normal 0.0941287 -0.99556 0
    outer loop
      vertex 1.88 -14.8817 60
      vertex 0.941857 -14.9704 0
      vertex 1.88 -14.8817 0
    endloop
  endfacet
  facet normal 0 0 -1
    outer loop
      vertex 14.9704 0.941857 60
      vertex 15 15 60
      vertex 15 0 60
    endloop
  endfacet
  facet normal 0 0 -1
    outer loop
      vertex 14.8817 1.88 60
      vertex 15 15 60
      vertex 14.9704 0.941857 60
    endloop
  endfacet
  facet normal 0 0 -1
    outer loop
      vertex 14.7343 2.81072 60
      vertex 15 15 60
      vertex 14.8817 1.88 60
    endloop
  endfacet
  facet normal 0 0 -1
    outer loop
      vertex 14.5287 3.73035 60
      vertex 15 15 60
      vertex 14.7343 2.81072 60
    endloop
  endfacet
  facet normal 0 0 -1
    outer loop
      vertex 14.2658 4.63525 60
      vertex 15 15 60
      vertex 14.5287 3.73035 60
    endloop
  endfacet
  facet normal 0 0 -1
    outer loop
      vertex 13.9466 5.52187 60
      vertex 15 15 60
      vertex 14.2658 4.63525 60
    endloop
  endfacet
  facet normal 0 0 -1
    outer loop
      vertex 13.5724 6.38669 60
      vertex 15 15 60
      vertex 13.9466 5.52187 60
    endloop
  endfacet
  facet normal 0 0 -1
    outer loop
      vertex 13.1446 7.22631 60
      vertex 15 15 60
      vertex 13.5724 6.38669 60
    endloop
  endfacet
  facet normal 0 0 -1
    outer loop
      vertex 12.6649 8.0374 60
      vertex 15 15 60
      vertex 13.1446 7.22631 60
    endloop
  endfacet
  facet normal 0 0 -1
    outer loop
      vertex 12.1353 8.81678 60
      vertex 15 15 60
      vertex 12.6649 8.0374 60
    endloop
  endfacet
  facet normal 0 0 -1
    outer loop
      vertex 11.5577 9.56136 60
      vertex 15 15 60
      vertex 12.1353 8.81678 60
    endloop
  endfacet
  facet normal 0 0 -1
    outer loop
      vertex 10.9345 10.2682 60
      vertex 15 15 60
      vertex 11.5577 9.56136 60
    endloop
  endfacet
  facet normal 0 0 -1
    outer loop
      vertex 10.2682 10.9345 60
      vertex 15 15 60
      vertex 10.9345 10.2682 60
    endloop
  endfacet
  facet normal 0 0 -1
    outer loop
      vertex 9.56136 11.5577 60
      vertex 15 15 60
      vertex 10.2682 10.9345 60
    endloop
  endfacet
  facet normal 0 0 -1
    outer loop
      vertex 8.81678 12.1353 60
      vertex 15 15 60
      vertex 9.56136 11.5577 60
    endloop
  endfacet
  facet normal 0 0 -1
    outer loop
      vertex 8.0374 12.6649 60
      vertex 15 15 60
      vertex 8.81678 12.1353 60
    endloop
  endfacet
  facet normal 0 0 -1
    outer loop
      vertex 7.22631 13.1446 60
      vertex 15 15 60
      vertex 8.0374 12.6649 60
    endloop
  endfacet
  facet normal 0 0 -1
    outer loop
      vertex 6.38669 13.5724 60
      vertex 15 15 60
      vertex 7.22631 13.1446 60
    endloop
  endfacet
  facet normal 0 0 -1
    outer loop
      vertex 5.52187 13.9466 60
      vertex 15 15 60
      vertex 6.38669 13.5724 60
    endloop
  endfacet
  facet normal 0 0 -1
    outer loop
      vertex 4.63525 14.2658 60
      vertex 15 15 60
      vertex 5.52187 13.9466 60
    endloop
  endfacet
  facet normal 0 0 -1
    outer loop
      vertex 3.73035 14.5287 60
      vertex 15 15 60
      vertex 4.63525 14.2658 60
    endloop
  endfacet
  facet normal 0 0 -1
    outer loop
      vertex 2.81072 14.7343 60
      vertex 15 15 60
      vertex 3.73035 14.5287 60
    endloop
  endfacet
  facet normal 0 0 -1
    outer loop
      vertex 1.88 14.8817 60
      vertex 15 15 60
      vertex 2.81072 14.7343 60
    endloop
  endfacet
  facet normal 0 0 -1
    outer loop
      vertex 0.941857 14.9704 60
      vertex 15 15 60
      vertex 1.88 14.8817 60
    endloop
  endfacet
  facet normal -0 0 -1
    outer loop
      vertex 15 15 60
      vertex 0.941857 14.9704 60
      vertex 0 15 60
    endloop
  endfacet
  facet normal 0 0 -1
    outer loop
      vertex 15 -15 60
      vertex 14.9704 -0.941857 60
      vertex 15 0 60
    endloop
  endfacet
  facet normal 0 0 -1
    outer loop
      vertex 15 -15 60
      vertex 14.8817 -1.88 60
      vertex 14.9704 -0.941857 60
    endloop
  endfacet
  facet normal 0 0 -1
    outer loop
      vertex 15 -15 60
      vertex 14.7343 -2.81072 60
      vertex 14.8817 -1.88 60
    endloop
  endfacet
  facet normal 0 0 -1
    outer loop
      vertex 15 -15 60
      vertex 14.5287 -3.73035 60
      vertex 14.7343 -2.81072 60
    endloop
  endfacet
  facet normal 0 0 -1
    outer loop
      vertex 15 -15 60
      vertex 14.2658 -4.63525 60
      vertex 14.5287 -3.73035 60
    endloop
  endfacet
  facet normal 0 0 -1
    outer loop
      vertex 15 -15 60
      vertex 13.9466 -5.52187 60
      vertex 14.2658 -4.63525 60
    endloop
  endfacet
  facet normal 0 0 -1
    outer loop
      vertex 15 -15 60
      vertex 13.5724 -6.38669 60
      vertex 13.9466 -5.52187 60
    endloop
  endfacet
  facet normal 0 0 -1
    outer loop
      vertex 15 -15 60
      vertex 13.1446 -7.22631 60
      vertex 13.5724 -6.38669 60
    endloop
  endfacet
  facet normal 0 0 -1
    outer loop
      vertex 15 -15 60
      vertex 12.6649 -8.0374 60
      vertex 13.1446 -7.22631 60
    endloop
  endfacet
  facet normal 0 0 -1
    outer loop
      vertex 15 -15 60
      vertex 12.1353 -8.81678 60
      vertex 12.6649 -8.0374 60
    endloop
  endfacet
  facet normal 0 0 -1
    outer loop
      vertex 15 -15 60
      vertex 11.5577 -9.56136 60
      vertex 12.1353 -8.81678 60
    endloop
  endfacet
  facet normal 0 0 -1
    outer loop
      vertex 15 -15 60
      vertex 10.9345 -10.2682 60
      vertex 11.5577 -9.56136 60
    endloop
  endfacet
  facet normal 0 0 -1
    outer loop
      vertex 15 -15 60
      vertex 10.2682 -10.9345 60
      vertex 10.9345 -10.2682 60
    endloop
  endfacet
  facet normal 0 0 -1
    outer loop
      vertex 15 -15 60
      vertex 9.56136 -11.5577 60
      vertex 10.2682 -10.9345 60
    endloop
  endfacet
  facet normal 0 0 -1
    outer loop
      vertex 15 -15 60
      vertex 8.81678 -12.1353 60
      vertex 9.56136 -11.5577 60
    endloop
  endfacet
  facet normal 0 0 -1
    outer loop
      vertex 15 -15 60
      vertex 8.0374 -12.6649 60
      vertex 8.81678 -12.1353 60
    endloop
  endfacet
  facet normal 0 0 -1
    outer loop
      vertex 15 -15 60
      vertex 7.22631 -13.1446 60
      vertex 8.0374 -12.6649 60
    endloop
  endfacet
  facet normal 0 0 -1
    outer loop
      vertex 15 -15 60
      vertex 6.38669 -13.5724 60
      vertex 7.22631 -13.1446 60
    endloop
  endfacet
  facet normal 0 0 -1
    outer loop
      vertex 15 -15 60
      vertex 5.52187 -13.9466 60
      vertex 6.38669 -13.5724 60
    endloop
  endfacet
  facet normal 0 0 -1
    outer loop
      vertex 15 -15 60
      vertex 4.63525 -14.2658 60
      vertex 5.52187 -13.9466 60
    endloop
  endfacet
  facet normal 0 0 -1
    outer loop
      vertex 15 -15 60
      vertex 3.73035 -14.5287 60
      vertex 4.63525 -14.2658 60
    endloop
  endfacet
  facet normal 0 0 -1
    outer loop
      vertex 15 -15 60
      vertex 2.81072 -14.7343 60
      vertex 3.73035 -14.5287 60
    endloop
  endfacet
  facet normal 0 0 -1
    outer loop
      vertex 15 -15 60
      vertex 1.88 -14.8817 60
      vertex 2.81072 -14.7343 60
    endloop
  endfacet
  facet normal 0 0 -1
    outer loop
      vertex 15 -15 60
      vertex 0.941857 -14.9704 60
      vertex 1.88 -14.8817 60
    endloop
  endfacet
  facet normal 0 -0 -1
    outer loop
      vertex 0.941857 -14.9704 60
      vertex 15 -15 60
      vertex 0 -15 60
    endloop
  endfacet
  facet normal 0 0 -1
    outer loop
      vertex -15 -15 60
      vertex -0.941857 -14.9704 60
      vertex 0 -15 60
    endloop
  endfacet
  facet normal 0 0 -1
    outer loop
      vertex -15 -15 60
      vertex -1.88 -14.8817 60
      vertex -0.941857 -14.9704 60
    endloop
  endfacet
  facet normal 0 0 -1
    outer loop
      vertex -15 -15 60
      vertex -2.81072 -14.7343 60
      vertex -1.88 -14.8817 60
    endloop
  endfacet
  facet normal 0 0 -1
    outer loop
      vertex -15 -15 60
      vertex -3.73035 -14.5287 60
      vertex -2.81072 -14.7343 60
    endloop
  endfacet
  facet normal 0 0 -1
    outer loop
      vertex -15 -15 60
      vertex -4.63525 -14.2658 60
      vertex -3.73035 -14.5287 60
    endloop
  endfacet
  facet normal 0 0 -1
    outer loop
      vertex -15 -15 60
      vertex -5.52187 -13.9466 60
      vertex -4.63525 -14.2658 60
    endloop
  endfacet
  facet normal 0 0 -1
    outer loop
      vertex -15 -15 60
      vertex -6.38669 -13.5724 60
      vertex -5.52187 -13.9466 60
    endloop
  endfacet
  facet normal 0 0 -1
    outer loop
      vertex -15 -15 60
      vertex -7.22631 -13.1446 60
      vertex -6.38669 -13.5724 60
    endloop
  endfacet
  facet normal 0 0 -1
    outer loop
      vertex -15 -15 60
      vertex -8.0374 -12.6649 60
      vertex -7.22631 -13.1446 60
    endloop
  endfacet
  facet normal 0 0 -1
    outer loop
      vertex -15 -15 60
      vertex -8.81678 -12.1353 60
      vertex -8.0374 -12.6649 60
    endloop
  endfacet
  facet normal 0 0 -1
    outer loop
      vertex -15 -15 60
      vertex -9.56136 -11.5577 60
      vertex -8.81678 -12.1353 60
    endloop
  endfacet
  facet normal 0 0 -1
    outer loop
      vertex -15 -15 60
      vertex -10.2682 -10.9345 60
      vertex -9.56136 -11.5577 60
    endloop
  endfacet
  facet normal 0 0 -1
    outer loop
      vertex -15 -15 60
      vertex -10.9345 -10.2682 60
      vertex -10.2682 -10.9345 60
    endloop
  endfacet
  facet normal 0 0 -1
    outer loop
      vertex -15 -15 60
      vertex -11.5577 -9.56136 60
      vertex -10.9345 -10.2682 60
    endloop
  endfacet
  facet normal 0 0 -1
    outer loop
      vertex -15 -15 60
      vertex -12.1353 -8.81678 60
      vertex -11.5577 -9.56136 60
    endloop
  endfacet
  facet normal 0 0 -1
    outer loop
      vertex -15 -15 60
      vertex -12.6649 -8.0374 60
      vertex -12.1353 -8.81678 60
    endloop
  endfacet
  facet normal 0 0 -1
    outer loop
      vertex -15 -15 60
      vertex -13.1446 -7.22631 60
      vertex -12.6649 -8.0374 60
    endloop
  endfacet
  facet normal 0 0 -1
    outer loop
      vertex -15 -15 60
      vertex -13.5724 -6.38669 60
      vertex -13.1446 -7.22631 60
    endloop
  endfacet
  facet normal 0 0 -1
    outer loop
      vertex -15 -15 60
      vertex -13.9466 -5.52187 60
      vertex -13.5724 -6.38669 60
    endloop
  endfacet
  facet normal 0 0 -1
    outer loop
      vertex -15 -15 60
      vertex -14.2658 -4.63525 60
      vertex -13.9466 -5.52187 60
    endloop
  endfacet
  facet normal 0 0 -1
    outer loop
      vertex -15 -15 60
      vertex -14.5287 -3.73035 60
      vertex -14.2658 -4.63525 60
    endloop
  endfacet
  facet normal 0 0 -1
    outer loop
      vertex -15 -15 60
      vertex -14.7343 -2.81072 60
      vertex -14.5287 -3.73035 60
    endloop
  endfacet
  facet normal 0 0 -1
    outer loop
      vertex -15 -15 60
      vertex -14.8817 -1.88 60
      vertex -14.7343 -2.81072 60
    endloop
  endfacet
  facet normal 0 0 -1
    outer loop
      vertex -15 -15 60
      vertex -14.9704 -0.941857 60
      vertex -14.8817 -1.88 60
    endloop
  endfacet
  facet normal -0 0 -1
    outer loop
      vertex -14.9704 -0.941857 60
      vertex -15 -15 60
      vertex -15 0 60
    endloop
  endfacet
  facet normal 0 0 -1
    outer loop
      vertex -0.941857 14.9704 60
      vertex -15 15 60
      vertex 0 15 60
    endloop
  endfacet
  facet normal 0 0 -1
    outer loop
      vertex -1.88 14.8817 60
      vertex -15 15 60
      vertex -0.941857 14.9704 60
    endloop
  endfacet
  facet normal 0 0 -1
    outer loop
      vertex -2.81072 14.7343 60
      vertex -15 15 60
      vertex -1.88 14.8817 60
    endloop
  endfacet
  facet normal 0 0 -1
    outer loop
      vertex -3.73035 14.5287 60
      vertex -15 15 60
      vertex -2.81072 14.7343 60
    endloop
  endfacet
  facet normal 0 0 -1
    outer loop
      vertex -4.63525 14.2658 60
      vertex -15 15 60
      vertex -3.73035 14.5287 60
    endloop
  endfacet
  facet normal 0 0 -1
    outer loop
      vertex -5.52187 13.9466 60
      vertex -15 15 60
      vertex -4.63525 14.2658 60
    endloop
  endfacet
  facet normal 0 0 -1
    outer loop
      vertex -6.38669 13.5724 60
      vertex -15 15 60
      vertex -5.52187 13.9466 60
    endloop
  endfacet
  facet normal 0 0 -1
    outer loop
      vertex -7.22631 13.1446 60
      vertex -15 15 60
      vertex -6.38669 13.5724 60
    endloop
  endfacet
  facet normal 0 0 -1
    outer loop
      vertex -8.0374 12.6649 60
      vertex -15 15 60
      vertex -7.22631 13.1446 60
    endloop
  endfacet
  facet normal 0 0 -1
    outer loop
      vertex -8.81678 12.1353 60
      vertex -15 15 60
      vertex -8.0374 12.6649 60
    endloop
  endfacet
  facet normal 0 0 -1
    outer loop
      vertex -9.56136 11.5577 60
      vertex -15 15 60
      vertex -8.81678 12.1353 60
    endloop
  endfacet
  facet normal 0 0 -1
    outer loop
      vertex -10.2682 10.9345 60
      vertex -15 15 60
      vertex -9.56136 11.5577 60
    endloop
  endfacet
  facet normal 0 0 -1
    outer loop
      vertex -10.9345 10.2682 60
      vertex -15 15 60
      vertex -10.2682 10.9345 60
    endloop
  endfacet
  facet normal 0 0 -1
    outer loop
      vertex -11.5577 9.56136 60
      vertex -15 15 60
      vertex -10.9345 10.2682 60
    endloop
  endfacet
  facet normal 0 0 -1
    outer loop
      vertex -12.1353 8.81678 60
      vertex -15 15 60
      vertex -11.5577 9.56136 60
    endloop
  endfacet
  facet normal 0 0 -1
    outer loop
      vertex -12.6649 8.0374 60
      vertex -15 15 60
      vertex -12.1353 8.81678 60
    endloop
  endfacet
  facet normal 0 0 -1
    outer loop
      vertex -13.1446 7.22631 60
      vertex -15 15 60
      vertex -12.6649 8.0374 60
    endloop
  endfacet
  facet normal 0 0 -1
    outer loop
      vertex -13.5724 6.38669 60
      vertex -15 15 60
      vertex -13.1446 7.22631 60
    endloop
  endfacet
  facet normal 0 0 -1
    outer loop
      vertex -13.9466 5.52187 60
      vertex -15 15 60
      vertex -13.5724 6.38669 60
    endloop
  endfacet
  facet normal 0 0 -1
    outer loop
      vertex -14.2658 4.63525 60
      vertex -15 15 60
      vertex -13.9466 5.52187 60
    endloop
  endfacet
  facet normal 0 0 -1
    outer loop
      vertex -14.5287 3.73035 60
      vertex -15 15 60
      vertex -14.2658 4.63525 60
    endloop
  endfacet
  facet normal 0 0 -1
    outer loop
      vertex -14.7343 2.81072 60
      vertex -15 15 60
      vertex -14.5287 3.73035 60
    endloop
  endfacet
  facet normal 0 0 -1
    outer loop
      vertex -14.8817 1.88 60
      vertex -15 15 60
      vertex -14.7343 2.81072 60
    endloop
  endfacet
  facet normal 0 0 -1
    outer loop
      vertex -14.9704 0.941857 60
      vertex -15 15 60
      vertex -14.8817 1.88 60
    endloop
  endfacet
  facet normal 0 0 -1
    outer loop
      vertex -15 15 60
      vertex -14.9704 0.941857 60
      vertex -15 0 60
    endloop
  endfacet
  facet normal -0.707107 -0.707107 0
    outer loop
      vertex -10.2682 -10.9345 0
      vertex -10.9345 -10.2682 60
      vertex -10.9345 -10.2682 0
    endloop
  endfacet
  facet normal -0.707107 -0.707107 0
    outer loop
      vertex -10.9345 -10.2682 60
      vertex -10.2682 -10.9345 0
      vertex -10.2682 -10.9345 60
    endloop
  endfacet
  facet normal -0.750092 0.661334 0
    outer loop
      vertex -11.5577 9.56136 0
      vertex -10.9345 10.2682 60
      vertex -10.9345 10.2682 0
    endloop
  endfacet
  facet normal -0.750092 0.661334 0
    outer loop
      vertex -10.9345 10.2682 60
      vertex -11.5577 9.56136 0
      vertex -11.5577 9.56136 60
    endloop
  endfacet
  facet normal -0.999507 -0.0314118 0
    outer loop
      vertex -14.9704 -0.941857 0
      vertex -15 0 60
      vertex -15 0 0
    endloop
  endfacet
  facet normal -0.999507 -0.0314118 0
    outer loop
      vertex -15 0 60
      vertex -14.9704 -0.941857 0
      vertex -14.9704 -0.941857 60
    endloop
  endfacet
  facet normal -0.0941287 -0.99556 0
    outer loop
      vertex -1.88 -14.8817 0
      vertex -0.941857 -14.9704 60
      vertex -1.88 -14.8817 60
    endloop
  endfacet
  facet normal -0.0941287 -0.99556 -0
    outer loop
      vertex -0.941857 -14.9704 60
      vertex -1.88 -14.8817 0
      vertex -0.941857 -14.9704 0
    endloop
  endfacet
  facet normal 0 0 -1
    outer loop
      vertex 14.9704 -0.941857 0
      vertex 14.9704 0.941857 0
      vertex 15 0 0
    endloop
  endfacet
  facet normal 0 0 -1
    outer loop
      vertex 14.8817 -1.88 0
      vertex 14.9704 0.941857 0
      vertex 14.9704 -0.941857 0
    endloop
  endfacet
  facet normal 0 0 -1
    outer loop
      vertex 14.8817 -1.88 0
      vertex 14.8817 1.88 0
      vertex 14.9704 0.941857 0
    endloop
  endfacet
  facet normal 0 0 -1
    outer loop
      vertex 14.7343 -2.81072 0
      vertex 14.8817 1.88 0
      vertex 14.8817 -1.88 0
    endloop
  endfacet
  facet normal 0 0 -1
    outer loop
      vertex 14.7343 -2.81072 0
      vertex 14.7343 2.81072 0
      vertex 14.8817 1.88 0
    endloop
  endfacet
  facet normal 0 0 -1
    outer loop
      vertex 14.5287 -3.73035 0
      vertex 14.7343 2.81072 0
      vertex 14.7343 -2.81072 0
    endloop
  endfacet
  facet normal 0 0 -1
    outer loop
      vertex 14.5287 -3.73035 0
      vertex 14.5287 3.73035 0
      vertex 14.7343 2.81072 0
    endloop
  endfacet
  facet normal 0 0 -1
    outer loop
      vertex 14.2658 -4.63525 0
      vertex 14.5287 3.73035 0
      vertex 14.5287 -3.73035 0
    endloop
  endfacet
  facet normal 0 0 -1
    outer loop
      vertex 14.2658 -4.63525 0
      vertex 14.2658 4.63525 0
      vertex 14.5287 3.73035 0
    endloop
  endfacet
  facet normal 0 0 -1
    outer loop
      vertex 13.9466 -5.52187 0
      vertex 14.2658 4.63525 0
      vertex 14.2658 -4.63525 0
    endloop
  endfacet
  facet normal 0 0 -1
    outer loop
      vertex 13.9466 -5.52187 0
      vertex 13.9466 5.52187 0
      vertex 14.2658 4.63525 0
    endloop
  endfacet
  facet normal 0 0 -1
    outer loop
      vertex 13.5724 -6.38669 0
      vertex 13.9466 5.52187 0
      vertex 13.9466 -5.52187 0
    endloop
  endfacet
  facet normal 0 0 -1
    outer loop
      vertex 13.5724 -6.38669 0
      vertex 13.5724 6.38669 0
      vertex 13.9466 5.52187 0
    endloop
  endfacet
  facet normal 0 0 -1
    outer loop
      vertex 13.1446 -7.22631 0
      vertex 13.5724 6.38669 0
      vertex 13.5724 -6.38669 0
    endloop
  endfacet
  facet normal 0 0 -1
    outer loop
      vertex 13.1446 -7.22631 0
      vertex 13.1446 7.22631 0
      vertex 13.5724 6.38669 0
    endloop
  endfacet
  facet normal 0 0 -1
    outer loop
      vertex 12.6649 -8.0374 0
      vertex 13.1446 7.22631 0
      vertex 13.1446 -7.22631 0
    endloop
  endfacet
  facet normal 0 0 -1
    outer loop
      vertex 12.6649 -8.0374 0
      vertex 12.6649 8.0374 0
      vertex 13.1446 7.22631 0
    endloop
  endfacet
  facet normal 0 0 -1
    outer loop
      vertex 12.1353 -8.81678 0
      vertex 12.6649 8.0374 0
      vertex 12.6649 -8.0374 0
    endloop
  endfacet
  facet normal 0 0 -1
    outer loop
      vertex 12.1353 -8.81678 0
      vertex 12.1353 8.81678 0
      vertex 12.6649 8.0374 0
    endloop
  endfacet
  facet normal 0 0 -1
    outer loop
      vertex 11.5577 -9.56136 0
      vertex 12.1353 8.81678 0
      vertex 12.1353 -8.81678 0
    endloop
  endfacet
  facet normal 0 0 -1
    outer loop
      vertex 11.5577 -9.56136 0
      vertex 11.5577 9.56136 0
      vertex 12.1353 8.81678 0
    endloop
  endfacet
  facet normal 0 0 -1
    outer loop
      vertex 10.9345 -10.2682 0
      vertex 11.5577 9.56136 0
      vertex 11.5577 -9.56136 0
    endloop
  endfacet
  facet normal 0 0 -1
    outer loop
      vertex 10.9345 -10.2682 0
      vertex 10.9345 10.2682 0
      vertex 11.5577 9.56136 0
    endloop
  endfacet
  facet normal 0 0 -1
    outer loop
      vertex 10.2682 -10.9345 0
      vertex 10.9345 10.2682 0
      vertex 10.9345 -10.2682 0
    endloop
  endfacet
  facet normal 0 0 -1
    outer loop
      vertex 10.2682 -10.9345 0
      vertex 10.2682 10.9345 0
      vertex 10.9345 10.2682 0
    endloop
  endfacet
  facet normal 0 0 -1
    outer loop
      vertex 9.56136 -11.5577 0
      vertex 10.2682 10.9345 0
      vertex 10.2682 -10.9345 0
    endloop
  endfacet
  facet normal 0 0 -1
    outer loop
      vertex 9.56136 -11.5577 0
      vertex 9.56136 11.5577 0
      vertex 10.2682 10.9345 0
    endloop
  endfacet
  facet normal 0 0 -1
    outer loop
      vertex 8.81678 -12.1353 0
      vertex 9.56136 11.5577 0
      vertex 9.56136 -11.5577 0
    endloop
  endfacet
  facet normal 0 0 -1
    outer loop
      vertex 8.81678 -12.1353 0
      vertex 8.81678 12.1353 0
      vertex 9.56136 11.5577 0
    endloop
  endfacet
  facet normal 0 0 -1
    outer loop
      vertex 8.0374 -12.6649 0
      vertex 8.81678 12.1353 0
      vertex 8.81678 -12.1353 0
    endloop
  endfacet
  facet normal 0 0 -1
    outer loop
      vertex 8.0374 -12.6649 0
      vertex 8.0374 12.6649 0
      vertex 8.81678 12.1353 0
    endloop
  endfacet
  facet normal 0 0 -1
    outer loop
      vertex 7.22631 -13.1446 0
      vertex 8.0374 12.6649 0
      vertex 8.0374 -12.6649 0
    endloop
  endfacet
  facet normal 0 0 -1
    outer loop
      vertex 7.22631 -13.1446 0
      vertex 7.22631 13.1446 0
      vertex 8.0374 12.6649 0
    endloop
  endfacet
  facet normal 0 0 -1
    outer loop
      vertex 6.38669 -13.5724 0
      vertex 7.22631 13.1446 0
      vertex 7.22631 -13.1446 0
    endloop
  endfacet
  facet normal 0 0 -1
    outer loop
      vertex 6.38669 -13.5724 0
      vertex 6.38669 13.5724 0
      vertex 7.22631 13.1446 0
    endloop
  endfacet
  facet normal 0 0 -1
    outer loop
      vertex 5.52187 -13.9466 0
      vertex 6.38669 13.5724 0
      vertex 6.38669 -13.5724 0
    endloop
  endfacet
  facet normal 0 0 -1
    outer loop
      vertex 5.52187 -13.9466 0
      vertex 5.52187 13.9466 0
      vertex 6.38669 13.5724 0
    endloop
  endfacet
  facet normal 0 0 -1
    outer loop
      vertex 4.63525 -14.2658 0
      vertex 5.52187 13.9466 0
      vertex 5.52187 -13.9466 0
    endloop
  endfacet
  facet normal 0 0 -1
    outer loop
      vertex 4.63525 -14.2658 0
      vertex 4.63525 14.2658 0
      vertex 5.52187 13.9466 0
    endloop
  endfacet
  facet normal 0 0 -1
    outer loop
      vertex 3.73035 -14.5287 0
      vertex 4.63525 14.2658 0
      vertex 4.63525 -14.2658 0
    endloop
  endfacet
  facet normal 0 0 -1
    outer loop
      vertex 3.73035 -14.5287 0
      vertex 3.73035 14.5287 0
      vertex 4.63525 14.2658 0
    endloop
  endfacet
  facet normal 0 0 -1
    outer loop
      vertex 2.81072 -14.7343 0
      vertex 3.73035 14.5287 0
      vertex 3.73035 -14.5287 0
    endloop
  endfacet
  facet normal 0 0 -1
    outer loop
      vertex 2.81072 -14.7343 0
      vertex 2.81072 14.7343 0
      vertex 3.73035 14.5287 0
    endloop
  endfacet
  facet normal 0 0 -1
    outer loop
      vertex 1.88 -14.8817 0
      vertex 2.81072 14.7343 0
      vertex 2.81072 -14.7343 0
    endloop
  endfacet
  facet normal 0 0 -1
    outer loop
      vertex 1.88 -14.8817 0
      vertex 1.88 14.8817 0
      vertex 2.81072 14.7343 0
    endloop
  endfacet
  facet normal 0 0 -1
    outer loop
      vertex 0.941857 -14.9704 0
      vertex 1.88 14.8817 0
      vertex 1.88 -14.8817 0
    endloop
  endfacet
  facet normal 0 0 -1
    outer loop
      vertex 0.941857 -14.9704 0
      vertex 0.941857 14.9704 0
      vertex 1.88 14.8817 0
    endloop
  endfacet
  facet normal 0 0 -1
    outer loop
      vertex 0 -15 0
      vertex 0.941857 14.9704 0
      vertex 0.941857 -14.9704 0
    endloop
  endfacet
  facet normal 0 0 -1
    outer loop
      vertex 0 -15 0
      vertex 0 15 0
      vertex 0.941857 14.9704 0
    endloop
  endfacet
  facet normal 0 0 -1
    outer loop
      vertex -0.941857 -14.9704 0
      vertex 0 15 0
      vertex 0 -15 0
    endloop
  endfacet
  facet normal 0 0 -1
    outer loop
      vertex -0.941857 -14.9704 0
      vertex -0.941857 14.9704 0
      vertex 0 15 0
    endloop
  endfacet
  facet normal 0 0 -1
    outer loop
      vertex -1.88 -14.8817 0
      vertex -0.941857 14.9704 0
      vertex -0.941857 -14.9704 0
    endloop
  endfacet
  facet normal 0 0 -1
    outer loop
      vertex -1.88 -14.8817 0
      vertex -1.88 14.8817 0
      vertex -0.941857 14.9704 0
    endloop
  endfacet
  facet normal 0 0 -1
    outer loop
      vertex -2.81072 -14.7343 0
      vertex -1.88 14.8817 0
      vertex -1.88 -14.8817 0
    endloop
  endfacet
  facet normal 0 0 -1
    outer loop
      vertex -2.81072 -14.7343 0
      vertex -2.81072 14.7343 0
      vertex -1.88 14.8817 0
    endloop
  endfacet
  facet normal 0 0 -1
    outer loop
      vertex -3.73035 -14.5287 0
      vertex -2.81072 14.7343 0
      vertex -2.81072 -14.7343 0
    endloop
  endfacet
  facet normal 0 0 -1
    outer loop
      vertex -3.73035 -14.5287 0
      vertex -3.73035 14.5287 0
      vertex -2.81072 14.7343 0
    endloop
  endfacet
  facet normal 0 0 -1
    outer loop
      vertex -4.63525 -14.2658 0
      vertex -3.73035 14.5287 0
      vertex -3.73035 -14.5287 0
    endloop
  endfacet
  facet normal 0 0 -1
    outer loop
      vertex -4.63525 -14.2658 0
      vertex -4.63525 14.2658 0
      vertex -3.73035 14.5287 0
    endloop
  endfacet
  facet normal 0 0 -1
    outer loop
      vertex -5.52187 -13.9466 0
      vertex -4.63525 14.2658 0
      vertex -4.63525 -14.2658 0
    endloop
  endfacet
  facet normal 0 0 -1
    outer loop
      vertex -5.52187 -13.9466 0
      vertex -5.52187 13.9466 0
      vertex -4.63525 14.2658 0
    endloop
  endfacet
  facet normal 0 0 -1
    outer loop
      vertex -6.38669 -13.5724 0
      vertex -5.52187 13.9466 0
      vertex -5.52187 -13.9466 0
    endloop
  endfacet
  facet normal 0 0 -1
    outer loop
      vertex -6.38669 -13.5724 0
      vertex -6.38669 13.5724 0
      vertex -5.52187 13.9466 0
    endloop
  endfacet
  facet normal 0 0 -1
    outer loop
      vertex -7.22631 -13.1446 0
      vertex -6.38669 13.5724 0
      vertex -6.38669 -13.5724 0
    endloop
  endfacet
  facet normal 0 0 -1
    outer loop
      vertex -7.22631 -13.1446 0
      vertex -7.22631 13.1446 0
      vertex -6.38669 13.5724 0
    endloop
  endfacet
  facet normal 0 0 -1
    outer loop
      vertex -8.0374 -12.6649 0
      vertex -7.22631 13.1446 0
      vertex -7.22631 -13.1446 0
    endloop
  endfacet
  facet normal 0 0 -1
    outer loop
      vertex -8.0374 -12.6649 0
      vertex -8.0374 12.6649 0
      vertex -7.22631 13.1446 0
    endloop
  endfacet
  facet normal 0 0 -1
    outer loop
      vertex -8.81678 -12.1353 0
      vertex -8.0374 12.6649 0
      vertex -8.0374 -12.6649 0
    endloop
  endfacet
  facet normal 0 0 -1
    outer loop
      vertex -8.81678 -12.1353 0
      vertex -8.81678 12.1353 0
      vertex -8.0374 12.6649 0
    endloop
  endfacet
  facet normal 0 0 -1
    outer loop
      vertex -9.56136 -11.5577 0
      vertex -8.81678 12.1353 0
      vertex -8.81678 -12.1353 0
    endloop
  endfacet
  facet normal 0 0 -1
    outer loop
      vertex -9.56136 -11.5577 0
      vertex -9.56136 11.5577 0
      vertex -8.81678 12.1353 0
    endloop
  endfacet
  facet normal 0 0 -1
    outer loop
      vertex -10.2682 -10.9345 0
      vertex -9.56136 11.5577 0
      vertex -9.56136 -11.5577 0
    endloop
  endfacet
  facet normal 0 0 -1
    outer loop
      vertex -10.2682 -10.9345 0
      vertex -10.2682 10.9345 0
      vertex -9.56136 11.5577 0
    endloop
  endfacet
  facet normal 0 0 -1
    outer loop
      vertex -10.9345 -10.2682 0
      vertex -10.2682 10.9345 0
      vertex -10.2682 -10.9345 0
    endloop
  endfacet
  facet normal 0 0 -1
    outer loop
      vertex -10.9345 -10.2682 0
      vertex -10.9345 10.2682 0
      vertex -10.2682 10.9345 0
    endloop
  endfacet
  facet normal 0 0 -1
    outer loop
      vertex -11.5577 -9.56136 0
      vertex -10.9345 10.2682 0
      vertex -10.9345 -10.2682 0
    endloop
  endfacet
  facet normal 0 0 -1
    outer loop
      vertex -11.5577 -9.56136 0
      vertex -11.5577 9.56136 0
      vertex -10.9345 10.2682 0
    endloop
  endfacet
  facet normal 0 0 -1
    outer loop
      vertex -12.1353 -8.81678 0
      vertex -11.5577 9.56136 0
      vertex -11.5577 -9.56136 0
    endloop
  endfacet
  facet normal 0 0 -1
    outer loop
      vertex -12.1353 -8.81678 0
      vertex -12.1353 8.81678 0
      vertex -11.5577 9.56136 0
    endloop
  endfacet
  facet normal 0 0 -1
    outer loop
      vertex -12.6649 -8.0374 0
      vertex -12.1353 8.81678 0
      vertex -12.1353 -8.81678 0
    endloop
  endfacet
  facet normal 0 0 -1
    outer loop
      vertex -12.6649 -8.0374 0
      vertex -12.6649 8.0374 0
      vertex -12.1353 8.81678 0
    endloop
  endfacet
  facet normal 0 0 -1
    outer loop
      vertex -13.1446 -7.22631 0
      vertex -12.6649 8.0374 0
      vertex -12.6649 -8.0374 0
    endloop
  endfacet
  facet normal 0 0 -1
    outer loop
      vertex -13.1446 -7.22631 0
      vertex -13.1446 7.22631 0
      vertex -12.6649 8.0374 0
    endloop
  endfacet
  facet normal 0 0 -1
    outer loop
      vertex -13.5724 -6.38669 0
      vertex -13.1446 7.22631 0
      vertex -13.1446 -7.22631 0
    endloop
  endfacet
  facet normal 0 0 -1
    outer loop
      vertex -13.5724 -6.38669 0
      vertex -13.5724 6.38669 0
      vertex -13.1446 7.22631 0
    endloop
  endfacet
  facet normal 0 0 -1
    outer loop
      vertex -13.9466 -5.52187 0
      vertex -13.5724 6.38669 0
      vertex -13.5724 -6.38669 0
    endloop
  endfacet
  facet normal 0 0 -1
    outer loop
      vertex -13.9466 -5.52187 0
      vertex -13.9466 5.52187 0
      vertex -13.5724 6.38669 0
    endloop
  endfacet
  facet normal 0 0 -1
    outer loop
      vertex -14.2658 -4.63525 0
      vertex -13.9466 5.52187 0
      vertex -13.9466 -5.52187 0
    endloop
  endfacet
  facet normal 0 0 -1
    outer loop
      vertex -14.2658 -4.63525 0
      vertex -14.2658 4.63525 0
      vertex -13.9466 5.52187 0
    endloop
  endfacet
  facet normal 0 0 -1
    outer loop
      vertex -14.5287 -3.73035 0
      vertex -14.2658 4.63525 0
      vertex -14.2658 -4.63525 0
    endloop
  endfacet
  facet normal 0 0 -1
    outer loop
      vertex -14.5287 -3.73035 0
      vertex -14.5287 3.73035 0
      vertex -14.2658 4.63525 0
    endloop
  endfacet
  facet normal 0 0 -1
    outer loop
      vertex -14.7343 -2.81072 0
      vertex -14.5287 3.73035 0
      vertex -14.5287 -3.73035 0
    endloop
  endfacet
  facet normal 0 0 -1
    outer loop
      vertex -14.7343 -2.81072 0
      vertex -14.7343 2.81072 0
      vertex -14.5287 3.73035 0
    endloop
  endfacet
  facet normal 0 0 -1
    outer loop
      vertex -14.8817 -1.88 0
      vertex -14.7343 2.81072 0
      vertex -14.7343 -2.81072 0
    endloop
  endfacet
  facet normal 0 0 -1
    outer loop
      vertex -14.8817 -1.88 0
      vertex -14.8817 1.88 0
      vertex -14.7343 2.81072 0
    endloop
  endfacet
  facet normal 0 0 -1
    outer loop
      vertex -14.9704 -0.941857 0
      vertex -14.8817 1.88 0
      vertex -14.8817 -1.88 0
    endloop
  endfacet
  facet normal 0 0 -1
    outer loop
      vertex -14.9704 -0.941857 0
      vertex -14.9704 0.941857 0
      vertex -14.8817 1.88 0
    endloop
  endfacet
  facet normal 0 -0 -1
    outer loop
      vertex -14.9704 0.941857 0
      vertex -14.9704 -0.941857 0
      vertex -15 0 0
    endloop
  endfacet
  facet normal 0.99556 -0.0941287 0
    outer loop
      vertex 14.8817 -1.88 60
      vertex 14.9704 -0.941857 0
      vertex 14.9704 -0.941857 60
    endloop
  endfacet
  facet normal 0.99556 -0.0941287 0
    outer loop
      vertex 14.9704 -0.941857 0
      vertex 14.8817 -1.88 60
      vertex 14.8817 -1.88 0
    endloop
  endfacet
  facet normal -0.960293 0.278993 0
    outer loop
      vertex -14.5287 3.73035 0
      vertex -14.2658 4.63525 60
      vertex -14.2658 4.63525 0
    endloop
  endfacet
  facet normal -0.960293 0.278993 0
    outer loop
      vertex -14.2658 4.63525 60
      vertex -14.5287 3.73035 0
      vertex -14.5287 3.73035 60
    endloop
  endfacet
  facet normal 0.278993 0.960293 -0
    outer loop
      vertex 4.63525 14.2658 0
      vertex 3.73035 14.5287 60
      vertex 4.63525 14.2658 60
    endloop
  endfacet
  facet normal 0.278993 0.960293 0
    outer loop
      vertex 3.73035 14.5287 60
      vertex 4.63525 14.2658 0
      vertex 3.73035 14.5287 0
    endloop
  endfacet
  facet normal 0.707107 0.707107 0
    outer loop
      vertex 10.9345 10.2682 60
      vertex 10.2682 10.9345 0
      vertex 10.2682 10.9345 60
    endloop
  endfacet
  facet normal 0.707107 0.707107 0
    outer loop
      vertex 10.2682 10.9345 0
      vertex 10.9345 10.2682 60
      vertex 10.9345 10.2682 0
    endloop
  endfacet
  facet normal -0.98769 -0.156422 0
    outer loop
      vertex -14.7343 -2.81072 0
      vertex -14.8817 -1.88 60
      vertex -14.8817 -1.88 0
    endloop
  endfacet
  facet normal -0.98769 -0.156422 0
    outer loop
      vertex -14.8817 -1.88 60
      vertex -14.7343 -2.81072 0
      vertex -14.7343 -2.81072 60
    endloop
  endfacet
  facet normal -0.707107 0.707107 0
    outer loop
      vertex -10.9345 10.2682 0
      vertex -10.2682 10.9345 60
      vertex -10.2682 10.9345 0
    endloop
  endfacet
  facet normal -0.707107 0.707107 0
    outer loop
      vertex -10.2682 10.9345 60
      vertex -10.9345 10.2682 0
      vertex -10.9345 10.2682 60
    endloop
  endfacet
  facet normal -0.278993 0.960293 0
    outer loop
      vertex -3.73035 14.5287 0
      vertex -4.63525 14.2658 60
      vertex -3.73035 14.5287 60
    endloop
  endfacet
  facet normal -0.278993 0.960293 0
    outer loop
      vertex -4.63525 14.2658 60
      vertex -3.73035 14.5287 0
      vertex -4.63525 14.2658 0
    endloop
  endfacet
  facet normal 0.338735 -0.940882 0
    outer loop
      vertex 4.63525 -14.2658 0
      vertex 5.52187 -13.9466 60
      vertex 4.63525 -14.2658 60
    endloop
  endfacet
  facet normal 0.338735 -0.940882 0
    outer loop
      vertex 5.52187 -13.9466 60
      vertex 4.63525 -14.2658 0
      vertex 5.52187 -13.9466 0
    endloop
  endfacet
  facet normal -0.975908 0.218182 0
    outer loop
      vertex -14.7343 2.81072 0
      vertex -14.5287 3.73035 60
      vertex -14.5287 3.73035 0
    endloop
  endfacet
  facet normal -0.975908 0.218182 0
    outer loop
      vertex -14.5287 3.73035 60
      vertex -14.7343 2.81072 0
      vertex -14.7343 2.81072 60
    endloop
  endfacet
  facet normal -0.940882 0.338735 0
    outer loop
      vertex -14.2658 4.63525 0
      vertex -13.9466 5.52187 60
      vertex -13.9466 5.52187 0
    endloop
  endfacet
  facet normal -0.940882 0.338735 0
    outer loop
      vertex -13.9466 5.52187 60
      vertex -14.2658 4.63525 0
      vertex -14.2658 4.63525 60
    endloop
  endfacet
  facet normal 0.89101 -0.453984 0
    outer loop
      vertex 13.1446 -7.22631 60
      vertex 13.5724 -6.38669 0
      vertex 13.5724 -6.38669 60
    endloop
  endfacet
  facet normal 0.89101 -0.453984 0
    outer loop
      vertex 13.5724 -6.38669 0
      vertex 13.1446 -7.22631 60
      vertex 13.1446 -7.22631 0
    endloop
  endfacet
  facet normal 0.940882 -0.338735 0
    outer loop
      vertex 13.9466 -5.52187 60
      vertex 14.2658 -4.63525 0
      vertex 14.2658 -4.63525 60
    endloop
  endfacet
  facet normal 0.940882 -0.338735 0
    outer loop
      vertex 14.2658 -4.63525 0
      vertex 13.9466 -5.52187 60
      vertex 13.9466 -5.52187 0
    endloop
  endfacet
  facet normal 0.0314118 0.999507 -0
    outer loop
      vertex 0.941857 14.9704 0
      vertex 0 15 60
      vertex 0.941857 14.9704 60
    endloop
  endfacet
  facet normal 0.0314118 0.999507 0
    outer loop
      vertex 0 15 60
      vertex 0.941857 14.9704 0
      vertex 0 15 0
    endloop
  endfacet
  facet normal 0.397111 0.91777 -0
    outer loop
      vertex 6.38669 13.5724 0
      vertex 5.52187 13.9466 60
      vertex 6.38669 13.5724 60
    endloop
  endfacet
  facet normal 0.397111 0.91777 0
    outer loop
      vertex 5.52187 13.9466 60
      vertex 6.38669 13.5724 0
      vertex 5.52187 13.9466 0
    endloop
  endfacet
  facet normal 0.156422 0.98769 -0
    outer loop
      vertex 2.81072 14.7343 0
      vertex 1.88 14.8817 60
      vertex 2.81072 14.7343 60
    endloop
  endfacet
  facet normal 0.156422 0.98769 0
    outer loop
      vertex 1.88 14.8817 60
      vertex 2.81072 14.7343 0
      vertex 1.88 14.8817 0
    endloop
  endfacet
  facet normal 0.397111 -0.91777 0
    outer loop
      vertex 5.52187 -13.9466 0
      vertex 6.38669 -13.5724 60
      vertex 5.52187 -13.9466 60
    endloop
  endfacet
  facet normal 0.397111 -0.91777 0
    outer loop
      vertex 6.38669 -13.5724 60
      vertex 5.52187 -13.9466 0
      vertex 6.38669 -13.5724 0
    endloop
  endfacet
  facet normal -0.975908 -0.218182 0
    outer loop
      vertex -14.5287 -3.73035 0
      vertex -14.7343 -2.81072 60
      vertex -14.7343 -2.81072 0
    endloop
  endfacet
  facet normal -0.975908 -0.218182 0
    outer loop
      vertex -14.7343 -2.81072 60
      vertex -14.5287 -3.73035 0
      vertex -14.5287 -3.73035 60
    endloop
  endfacet
  facet normal 0.790132 0.612937 0
    outer loop
      vertex 12.1353 8.81678 60
      vertex 11.5577 9.56136 0
      vertex 11.5577 9.56136 60
    endloop
  endfacet
  facet normal 0.790132 0.612937 0
    outer loop
      vertex 11.5577 9.56136 0
      vertex 12.1353 8.81678 60
      vertex 12.1353 8.81678 0
    endloop
  endfacet
  facet normal -0.999507 0.0314118 0
    outer loop
      vertex -15 0 0
      vertex -14.9704 0.941857 60
      vertex -14.9704 0.941857 0
    endloop
  endfacet
  facet normal -0.999507 0.0314118 0
    outer loop
      vertex -14.9704 0.941857 60
      vertex -15 0 0
      vertex -15 0 60
    endloop
  endfacet
  facet normal -0.338735 -0.940882 0
    outer loop
      vertex -5.52187 -13.9466 0
      vertex -4.63525 -14.2658 60
      vertex -5.52187 -13.9466 60
    endloop
  endfacet
  facet normal -0.338735 -0.940882 -0
    outer loop
      vertex -4.63525 -14.2658 60
      vertex -5.52187 -13.9466 0
      vertex -4.63525 -14.2658 0
    endloop
  endfacet
  facet normal -0.0941287 0.99556 0
    outer loop
      vertex -0.941857 14.9704 0
      vertex -1.88 14.8817 60
      vertex -0.941857 14.9704 60
    endloop
  endfacet
  facet normal -0.0941287 0.99556 0
    outer loop
      vertex -1.88 14.8817 60
      vertex -0.941857 14.9704 0
      vertex -1.88 14.8817 0
    endloop
  endfacet
  facet normal -0.860731 -0.509059 0
    outer loop
      vertex -12.6649 -8.0374 0
      vertex -13.1446 -7.22631 60
      vertex -13.1446 -7.22631 0
    endloop
  endfacet
  facet normal -0.860731 -0.509059 0
    outer loop
      vertex -13.1446 -7.22631 60
      vertex -12.6649 -8.0374 0
      vertex -12.6649 -8.0374 60
    endloop
  endfacet
  facet normal -0.827113 0.562035 0
    outer loop
      vertex -12.6649 8.0374 0
      vertex -12.1353 8.81678 60
      vertex -12.1353 8.81678 0
    endloop
  endfacet
  facet normal -0.827113 0.562035 0
    outer loop
      vertex -12.1353 8.81678 60
      vertex -12.6649 8.0374 0
      vertex -12.6649 8.0374 60
    endloop
  endfacet
  facet normal 0.91777 0.397111 0
    outer loop
      vertex 13.9466 5.52187 60
      vertex 13.5724 6.38669 0
      vertex 13.5724 6.38669 60
    endloop
  endfacet
  facet normal 0.91777 0.397111 0
    outer loop
      vertex 13.5724 6.38669 0
      vertex 13.9466 5.52187 60
      vertex 13.9466 5.52187 0
    endloop
  endfacet
  facet normal 0.338735 0.940882 -0
    outer loop
      vertex 5.52187 13.9466 0
      vertex 4.63525 14.2658 60
      vertex 5.52187 13.9466 60
    endloop
  endfacet
  facet normal 0.338735 0.940882 0
    outer loop
      vertex 4.63525 14.2658 60
      vertex 5.52187 13.9466 0
      vertex 4.63525 14.2658 0
    endloop
  endfacet
  facet normal 0.218182 0.975908 -0
    outer loop
      vertex 3.73035 14.5287 0
      vertex 2.81072 14.7343 60
      vertex 3.73035 14.5287 60
    endloop
  endfacet
  facet normal 0.218182 0.975908 0
    outer loop
      vertex 2.81072 14.7343 60
      vertex 3.73035 14.5287 0
      vertex 2.81072 14.7343 0
    endloop
  endfacet
  facet normal 0.156422 -0.98769 0
    outer loop
      vertex 1.88 -14.8817 0
      vertex 2.81072 -14.7343 60
      vertex 1.88 -14.8817 60
    endloop
  endfacet
  facet normal 0.156422 -0.98769 0
    outer loop
      vertex 2.81072 -14.7343 60
      vertex 1.88 -14.8817 0
      vertex 2.81072 -14.7343 0
    endloop
  endfacet
  facet normal -0.790132 -0.612937 0
    outer loop
      vertex -11.5577 -9.56136 0
      vertex -12.1353 -8.81678 60
      vertex -12.1353 -8.81678 0
    endloop
  endfacet
  facet normal -0.790132 -0.612937 0
    outer loop
      vertex -12.1353 -8.81678 60
      vertex -11.5577 -9.56136 0
      vertex -11.5577 -9.56136 60
    endloop
  endfacet
  facet normal -0.99556 0.0941287 0
    outer loop
      vertex -14.9704 0.941857 0
      vertex -14.8817 1.88 60
      vertex -14.8817 1.88 0
    endloop
  endfacet
  facet normal -0.99556 0.0941287 0
    outer loop
      vertex -14.8817 1.88 60
      vertex -14.9704 0.941857 0
      vertex -14.9704 0.941857 60
    endloop
  endfacet
  facet normal -0.960293 -0.278993 0
    outer loop
      vertex -14.2658 -4.63525 0
      vertex -14.5287 -3.73035 60
      vertex -14.5287 -3.73035 0
    endloop
  endfacet
  facet normal -0.960293 -0.278993 0
    outer loop
      vertex -14.5287 -3.73035 60
      vertex -14.2658 -4.63525 0
      vertex -14.2658 -4.63525 60
    endloop
  endfacet
  facet normal 0.0941287 0.99556 -0
    outer loop
      vertex 1.88 14.8817 0
      vertex 0.941857 14.9704 60
      vertex 1.88 14.8817 60
    endloop
  endfacet
  facet normal 0.0941287 0.99556 0
    outer loop
      vertex 0.941857 14.9704 60
      vertex 1.88 14.8817 0
      vertex 0.941857 14.9704 0
    endloop
  endfacet
  facet normal 0.612937 -0.790132 0
    outer loop
      vertex 8.81678 -12.1353 0
      vertex 9.56136 -11.5577 60
      vertex 8.81678 -12.1353 60
    endloop
  endfacet
  facet normal 0.612937 -0.790132 0
    outer loop
      vertex 9.56136 -11.5577 60
      vertex 8.81678 -12.1353 0
      vertex 9.56136 -11.5577 0
    endloop
  endfacet
  facet normal -0.218182 0.975908 0
    outer loop
      vertex -2.81072 14.7343 0
      vertex -3.73035 14.5287 60
      vertex -2.81072 14.7343 60
    endloop
  endfacet
  facet normal -0.218182 0.975908 0
    outer loop
      vertex -3.73035 14.5287 60
      vertex -2.81072 14.7343 0
      vertex -3.73035 14.5287 0
    endloop
  endfacet
  facet normal 0.707107 -0.707107 0
    outer loop
      vertex 10.2682 -10.9345 60
      vertex 10.9345 -10.2682 0
      vertex 10.9345 -10.2682 60
    endloop
  endfacet
  facet normal 0.707107 -0.707107 0
    outer loop
      vertex 10.9345 -10.2682 0
      vertex 10.2682 -10.9345 60
      vertex 10.2682 -10.9345 0
    endloop
  endfacet
  facet normal -0.278993 -0.960293 0
    outer loop
      vertex -4.63525 -14.2658 0
      vertex -3.73035 -14.5287 60
      vertex -4.63525 -14.2658 60
    endloop
  endfacet
  facet normal -0.278993 -0.960293 -0
    outer loop
      vertex -3.73035 -14.5287 60
      vertex -4.63525 -14.2658 0
      vertex -3.73035 -14.5287 0
    endloop
  endfacet
  facet normal -0.218182 -0.975908 0
    outer loop
      vertex -3.73035 -14.5287 0
      vertex -2.81072 -14.7343 60
      vertex -3.73035 -14.5287 60
    endloop
  endfacet
  facet normal -0.218182 -0.975908 -0
    outer loop
      vertex -2.81072 -14.7343 60
      vertex -3.73035 -14.5287 0
      vertex -2.81072 -14.7343 0
    endloop
  endfacet
  facet normal -0.509059 -0.860731 0
    outer loop
      vertex -8.0374 -12.6649 0
      vertex -7.22631 -13.1446 60
      vertex -8.0374 -12.6649 60
    endloop
  endfacet
  facet normal -0.509059 -0.860731 -0
    outer loop
      vertex -7.22631 -13.1446 60
      vertex -8.0374 -12.6649 0
      vertex -7.22631 -13.1446 0
    endloop
  endfacet
  facet normal -0.156422 -0.98769 0
    outer loop
      vertex -2.81072 -14.7343 0
      vertex -1.88 -14.8817 60
      vertex -2.81072 -14.7343 60
    endloop
  endfacet
  facet normal -0.156422 -0.98769 -0
    outer loop
      vertex -1.88 -14.8817 60
      vertex -2.81072 -14.7343 0
      vertex -1.88 -14.8817 0
    endloop
  endfacet
  facet normal -0.453984 -0.89101 0
    outer loop
      vertex -7.22631 -13.1446 0
      vertex -6.38669 -13.5724 60
      vertex -7.22631 -13.1446 60
    endloop
  endfacet
  facet normal -0.453984 -0.89101 -0
    outer loop
      vertex -6.38669 -13.5724 60
      vertex -7.22631 -13.1446 0
      vertex -6.38669 -13.5724 0
    endloop
  endfacet
  facet normal -0.397111 -0.91777 0
    outer loop
      vertex -6.38669 -13.5724 0
      vertex -5.52187 -13.9466 60
      vertex -6.38669 -13.5724 60
    endloop
  endfacet
  facet normal -0.397111 -0.91777 -0
    outer loop
      vertex -5.52187 -13.9466 60
      vertex -6.38669 -13.5724 0
      vertex -5.52187 -13.9466 0
    endloop
  endfacet
  facet normal -0.453984 0.89101 0
    outer loop
      vertex -6.38669 13.5724 0
      vertex -7.22631 13.1446 60
      vertex -6.38669 13.5724 60
    endloop
  endfacet
  facet normal -0.453984 0.89101 0
    outer loop
      vertex -7.22631 13.1446 60
      vertex -6.38669 13.5724 0
      vertex -7.22631 13.1446 0
    endloop
  endfacet
  facet normal 1 0 0
    outer loop
      vertex 15 15 90
      vertex 15 0 60
      vertex 15 15 60
    endloop
  endfacet
  facet normal 1 -0 0
    outer loop
      vertex 15 -15 90
      vertex 15 0 60
      vertex 15 15 90
    endloop
  endfacet
  facet normal 1 0 0
    outer loop
      vertex 15 0 60
      vertex 15 -15 90
      vertex 15 -15 60
    endloop
  endfacet
  facet normal -0 0 1
    outer loop
      vertex -15 15 90
      vertex 15 -15 90
      vertex 15 15 90
    endloop
  endfacet
  facet normal 0 0 1
    outer loop
      vertex 15 -15 90
      vertex -15 15 90
      vertex -15 -15 90
    endloop
  endfacet
  facet normal -1 0 0
    outer loop
      vertex -15 0 60
      vertex -15 15 90
      vertex -15 15 60
    endloop
  endfacet
  facet normal -1 0 0
    outer loop
      vertex -15 -15 90
      vertex -15 0 60
      vertex -15 -15 60
    endloop
  endfacet
  facet normal -1 0 0
    outer loop
      vertex -15 0 60
      vertex -15 -15 90
      vertex -15 15 90
    endloop
  endfacet
  facet normal 0 1 0
    outer loop
      vertex 0 15 60
      vertex 15 15 90
      vertex 15 15 60
    endloop
  endfacet
  facet normal 0 1 0
    outer loop
      vertex 15 15 90
      vertex 0 15 60
      vertex -15 15 90
    endloop
  endfacet
  facet normal 0 1 0
    outer loop
      vertex -15 15 90
      vertex 0 15 60
      vertex -15 15 60
    endloop
  endfacet
  facet normal 0 -1 0
    outer loop
      vertex 0 -15 60
      vertex -15 -15 90
      vertex -15 -15 60
    endloop
  endfacet
  facet normal 0 -1 0
    outer loop
      vertex -15 -15 90
      vertex 0 -15 60
      vertex 15 -15 90
    endloop
  endfacet
  facet normal 0 -1 -0
    outer loop
      vertex 15 -15 90
      vertex 0 -15 60
      vertex 15 -15 60
    endloop
  endfacet
endsolid OpenSCAD_Model
